<svg xmlns="http://www.w3.org/2000/svg" viewBox="0 0 592.95 147.17"><defs><style>.cls-1{isolation:isolate;}.cls-2{fill:#fdece1;}.cls-3{fill:#794635;}.cls-4{fill:#efbb98;}.cls-5{fill:#c58c6e;}.cls-10,.cls-11,.cls-12,.cls-6,.cls-7,.cls-8{fill:none;stroke-miterlimit:10;stroke-width:0.5px;}.cls-6{stroke:#fdece1;}.cls-6,.cls-7,.cls-8{stroke-dasharray:1 1;}.cls-7{stroke:#efbb98;}.cls-10,.cls-8{stroke:#351625;}.cls-9{fill:#ddc9bf;}.cls-10,.cls-11,.cls-12{stroke-dasharray:3 5;}.cls-11{stroke:#5b2c41;}.cls-12{stroke:#713a51;}</style></defs><g id="Layer_2" data-name="Layer 2"><g id="Layer_1-2" data-name="Layer 1"><g id="thru_the" data-name="thru the" class="cls-1"><path class="cls-2" d="M303.33,29.56a1.52,1.52,0,0,1-.9,1.37A24.11,24.11,0,0,1,300.26,32a14.23,14.23,0,0,1-1.76.64,10,10,0,0,1-1.62.34c-.51,0-1.05.08-1.62.08a9.62,9.62,0,0,1-3-.45,6.39,6.39,0,0,1-2.5-1.5,7,7,0,0,1-1.67-2.74,12.1,12.1,0,0,1-.58-4.06V12.76h-2a1.3,1.3,0,0,1-1-.38,1.26,1.26,0,0,1-.33-.82,1.2,1.2,0,0,1,1.31-1.21h2V3.78a1.77,1.77,0,0,1,.6-1.6,1.92,1.92,0,0,1,2.17,0c.38.27.54.77.54,1.58v6.57h8.94a1.37,1.37,0,0,1,1,.36,1.14,1.14,0,0,1,0,1.68,1.38,1.38,0,0,1-1,.37h-8.94V24.32a10.17,10.17,0,0,0,.41,3.19,4.31,4.31,0,0,0,1,1.8,3.1,3.1,0,0,0,1.47.81,7.9,7.9,0,0,0,4.47-.22,24.76,24.76,0,0,0,2.95-1.36,2,2,0,0,1,.9-.24,1.28,1.28,0,0,1,.95.36A1.25,1.25,0,0,1,303.33,29.56Z"/><path class="cls-2" d="M333.54,20.36v9.85a7,7,0,0,1-.05.81,3,3,0,0,1-.19.79,1.67,1.67,0,0,1-.47.67,1.31,1.31,0,0,1-.9.31,1.56,1.56,0,0,1-1-.3,2.06,2.06,0,0,1-.5-.66,3.06,3.06,0,0,1-.2-.83c0-.26,0-.52,0-.79V20.36a19.05,19.05,0,0,0-.33-3.78,5.58,5.58,0,0,0-1.18-2.51,5.24,5.24,0,0,0-2.43-1.48,18.83,18.83,0,0,0-7.77-.25,16.1,16.1,0,0,0-3.52.91,10.56,10.56,0,0,0-2.92,1.7,5.13,5.13,0,0,0-1.66,2.47V30.21c0,.28,0,.55,0,.81a3.65,3.65,0,0,1-.2.79,1.77,1.77,0,0,1-.47.67,1.59,1.59,0,0,1-1.86,0,1.79,1.79,0,0,1-.52-.67,2.47,2.47,0,0,1-.21-.83c0-.26,0-.52,0-.79V2.52c0-.24,0-.48,0-.74a2.42,2.42,0,0,1,.21-.82,1.79,1.79,0,0,1,.52-.67,1.64,1.64,0,0,1,1.85,0,1.68,1.68,0,0,1,.48.68,3.47,3.47,0,0,1,.2.77c0,.25,0,.53,0,.79V13.18a1.29,1.29,0,0,1,.16-.17,7.78,7.78,0,0,1,1.88-1.58,10.46,10.46,0,0,1,2.35-1,22.31,22.31,0,0,1,2.53-.64,24.51,24.51,0,0,1,2.47-.31Q321,9.35,322,9.35a22.41,22.41,0,0,1,5.32.54,8,8,0,0,1,3.63,1.89,7.49,7.49,0,0,1,2,3.46A19.27,19.27,0,0,1,333.54,20.36Z"/><path class="cls-2" d="M359.64,11.41a1.6,1.6,0,0,1-.35,1,1.34,1.34,0,0,1-1.14.52.88.88,0,0,1-.42-.08h0q-1.14-.31-2.1-.48a14.86,14.86,0,0,0-5.22.15,10.12,10.12,0,0,0-2.63,1,7.25,7.25,0,0,0-2,1.59,6.67,6.67,0,0,0-1.23,2.18v13a5,5,0,0,1-.23,1.52,1.36,1.36,0,0,1-1.41,1,1.6,1.6,0,0,1-.94-.27,1.48,1.48,0,0,1-.54-.69,2.77,2.77,0,0,1-.17-.79,6.34,6.34,0,0,1,0-.76V12a3.09,3.09,0,0,1,.29-1.36A1.51,1.51,0,0,1,343,9.92a1.26,1.26,0,0,1,1.29.78,3.57,3.57,0,0,1,.23,1.34V13a5.51,5.51,0,0,1,.7-.82,8.74,8.74,0,0,1,2.66-1.76,11.33,11.33,0,0,1,3-.82,19.75,19.75,0,0,1,4.55-.14c.54.05,1,.11,1.4.18a9.68,9.68,0,0,1,1,.23c.28.07.56.14.83.23a1.19,1.19,0,0,1,.76.56A1.47,1.47,0,0,1,359.64,11.41Z"/><path class="cls-2" d="M389.81,12.5V30.28a6.68,6.68,0,0,1,0,.78,3,3,0,0,1-.19.77,1.7,1.7,0,0,1-.49.68,1.36,1.36,0,0,1-.88.28,1.42,1.42,0,0,1-1.49-.85,3.69,3.69,0,0,1-.25-1.41v-1c-.21.19-.44.39-.68.58a11.06,11.06,0,0,1-2.39,1.45,15.13,15.13,0,0,1-3.29,1.07,18.68,18.68,0,0,1-4.32.43,21.23,21.23,0,0,1-5.34-.59,9.19,9.19,0,0,1-3.74-1.95,7.74,7.74,0,0,1-2.13-3.38,15.79,15.79,0,0,1-.65-4.8V12.5a7.32,7.32,0,0,1,0-.81,2.69,2.69,0,0,1,.19-.79,1.55,1.55,0,0,1,2.41-.68,1.57,1.57,0,0,1,.49.7,3.17,3.17,0,0,1,.15.79c0,.26,0,.53,0,.79v9.85a16.85,16.85,0,0,0,.38,3.89,4.92,4.92,0,0,0,1.27,2.38,5.47,5.47,0,0,0,2.53,1.3,18.42,18.42,0,0,0,4.36.43,18.17,18.17,0,0,0,3.58-.33,18.3,18.3,0,0,0,3-.85A16,16,0,0,0,384.81,28c.63-.38,1.2-.75,1.69-1.1V12.5c0-.26,0-.53,0-.79a4.44,4.44,0,0,1,.15-.79,1.84,1.84,0,0,1,.47-.69,1.69,1.69,0,0,1,1.91,0,1.82,1.82,0,0,1,.53.67,2.2,2.2,0,0,1,.2.83C389.8,12,389.81,12.24,389.81,12.5Z"/><path class="cls-2" d="M427.54,29.56a1.51,1.51,0,0,1-.89,1.37c-.81.44-1.54.81-2.17,1.08a14.44,14.44,0,0,1-1.78.64,9.54,9.54,0,0,1-1.6.34c-.51,0-1.06.08-1.63.08a9.55,9.55,0,0,1-3-.45,6.39,6.39,0,0,1-2.52-1.5,7.09,7.09,0,0,1-1.66-2.74,12.35,12.35,0,0,1-.59-4.06V12.76h-2a1.27,1.27,0,0,1-1-.38,1.18,1.18,0,0,1-.34-.82,1.2,1.2,0,0,1,.34-.84,1.27,1.27,0,0,1,1-.37h2V3.78a1.77,1.77,0,0,1,.61-1.6,1.94,1.94,0,0,1,2.18,0A1.85,1.85,0,0,1,415,3.78v6.57H424a1.4,1.4,0,0,1,1,.36,1.16,1.16,0,0,1,0,1.68,1.41,1.41,0,0,1-1,.37H415V24.32a10.55,10.55,0,0,0,.39,3.19,4.66,4.66,0,0,0,1,1.8,3.1,3.1,0,0,0,1.47.81,7.9,7.9,0,0,0,4.47-.22,24.05,24.05,0,0,0,2.95-1.36,2,2,0,0,1,.9-.24,1.3,1.3,0,0,1,1,.36A1.24,1.24,0,0,1,427.54,29.56Z"/><path class="cls-2" d="M457.75,20.36v9.85a7,7,0,0,1-.05.81,3.53,3.53,0,0,1-.18.79,2,2,0,0,1-.47.67,1.33,1.33,0,0,1-.9.31,1.52,1.52,0,0,1-1-.3,1.81,1.81,0,0,1-.5-.66,2.25,2.25,0,0,1-.2-.83c0-.26,0-.52,0-.79V20.36a19.83,19.83,0,0,0-.33-3.78,5.58,5.58,0,0,0-1.18-2.51,5.34,5.34,0,0,0-2.43-1.48,18.89,18.89,0,0,0-7.78-.25,16.39,16.39,0,0,0-3.52.91,10.7,10.7,0,0,0-2.92,1.7,5.2,5.2,0,0,0-1.66,2.47V30.21a7,7,0,0,1-.05.81,2.77,2.77,0,0,1-.19.79,1.86,1.86,0,0,1-.46.67,1.59,1.59,0,0,1-1.86,0,1.82,1.82,0,0,1-.53-.67,2.47,2.47,0,0,1-.2-.83c0-.26,0-.52,0-.79V2.52c0-.24,0-.48,0-.74a2.41,2.41,0,0,1,.2-.82,1.82,1.82,0,0,1,.53-.67,1.61,1.61,0,0,1,1.83,0,1.61,1.61,0,0,1,.49.68,2.64,2.64,0,0,1,.19.77,6.84,6.84,0,0,1,.05.79V13.18a1.29,1.29,0,0,1,.16-.17,8,8,0,0,1,1.88-1.58,10.88,10.88,0,0,1,2.35-1,22.31,22.31,0,0,1,2.53-.64A24.7,24.7,0,0,1,444,9.44c.79-.06,1.53-.09,2.19-.09a22.32,22.32,0,0,1,5.31.54,8,8,0,0,1,3.64,1.89,7.48,7.48,0,0,1,2,3.46A19.27,19.27,0,0,1,457.75,20.36Z"/><path class="cls-2" d="M490.38,21.24a6.36,6.36,0,0,0,.26-.83c.06-.3.12-.62.16-1a7.75,7.75,0,0,0,.06-.93,8.09,8.09,0,0,0-3.15-6.82c-2.06-1.55-5.14-2.34-9.2-2.34A25.77,25.77,0,0,0,473,9.9a11.88,11.88,0,0,0-4.52,2,9.54,9.54,0,0,0-3.06,3.71,13.16,13.16,0,0,0-1.1,5.73A16,16,0,0,0,465,26a9.33,9.33,0,0,0,2.24,3.78,10.42,10.42,0,0,0,3.95,2.43,17.36,17.36,0,0,0,5.8.85,30.12,30.12,0,0,0,5.56-.44,25.5,25.5,0,0,0,4-1A12.36,12.36,0,0,0,489,30.49a6.93,6.93,0,0,0,1.11-.82,1.11,1.11,0,0,0,.51-.94,1.49,1.49,0,0,0-.41-1,1.3,1.3,0,0,0-1-.47,1,1,0,0,0-.38.09l-.13.06c-.33.22-.8.5-1.41.83a13.13,13.13,0,0,1-2.28,1,22.17,22.17,0,0,1-3.4.81,28.73,28.73,0,0,1-4.65.33,15.13,15.13,0,0,1-4.1-.5,6.91,6.91,0,0,1-2.86-1.53,6.77,6.77,0,0,1-1.74-2.75,13.21,13.21,0,0,1-.65-3.72h22C490.11,21.85,490.31,21.39,490.38,21.24Zm-11.87-9.16a17.41,17.41,0,0,1,4.62.52A8,8,0,0,1,486.08,14a4.81,4.81,0,0,1,1.56,2,6.27,6.27,0,0,1,.49,2.48v1H467.74a8.72,8.72,0,0,1,.81-3.15,6.44,6.44,0,0,1,2.07-2.41,9.25,9.25,0,0,1,3.3-1.38A21.67,21.67,0,0,1,478.51,12.08Z"/></g><g id="MASK"><g class="cls-1"><g class="cls-1"><path class="cls-3" d="M318.59,132.26l-23-64.63v77.5h-11V47.58h15L324,117.49,346.5,47.58h14.9v97.55H350V67.63l-21.27,64.63Z"/></g><g class="cls-1"><path class="cls-3" d="M435,145.13,427.79,119H393.65l-7.32,26.15H375l29.13-97.55h14.09l29,97.55Zm-38.75-34.95h29.13L411,58.15Z"/></g><g class="cls-1"><path class="cls-3" d="M485.65,54.49q-7.59,0-12.47,3.59T468.3,69.39a18.94,18.94,0,0,0,.95,6.24,12.49,12.49,0,0,0,3.19,4.87,26.13,26.13,0,0,0,5.89,4.14,74.41,74.41,0,0,0,9.08,4,104.52,104.52,0,0,1,10,4.47,34.11,34.11,0,0,1,8.34,6,25.77,25.77,0,0,1,5.69,8.53,31.6,31.6,0,0,1,2.1,12.2,25.64,25.64,0,0,1-2.24,10.56,26.62,26.62,0,0,1-6.23,8.74,29.71,29.71,0,0,1-9.55,5.9,33.42,33.42,0,0,1-12.2,2.17,37.5,37.5,0,0,1-11.85-1.7,30.08,30.08,0,0,1-8.74-4.47,26.39,26.39,0,0,1-6-6.3,33.27,33.27,0,0,1-3.73-7.32l9.76-3.65a28.23,28.23,0,0,0,2.51,5.28,17.19,17.19,0,0,0,4,4.54,19.74,19.74,0,0,0,5.9,3.18,24.94,24.94,0,0,0,8.33,1.22,24.58,24.58,0,0,0,6.5-.88,16.88,16.88,0,0,0,5.9-2.91,14.71,14.71,0,0,0,4.26-5.42,18.91,18.91,0,0,0,1.63-8.27,24.2,24.2,0,0,0-1.29-8.53,15.58,15.58,0,0,0-4.06-6,26.84,26.84,0,0,0-7.25-4.61q-4.47-2-10.7-4.61-11-4.47-16.19-10.84t-5.22-15.71a24.77,24.77,0,0,1,1.9-9.69,21.83,21.83,0,0,1,5.55-7.86,26.49,26.49,0,0,1,8.88-5.21,34.8,34.8,0,0,1,12-1.9q11.5,0,18,4.67a30.28,30.28,0,0,1,10,12.67l-10,3.52a20.49,20.49,0,0,0-6.37-8.8Q493,54.49,485.65,54.49Z"/><path class="cls-3" d="M578.86,145.13,545.13,99.74v45.39H533.61V47.58h11.52V90.12l30.62-42.54h12.87l-34,46.47L593,145.13Z"/></g></g><g class="cls-1"><path class="cls-4" d="M356.39,144.32h-3.13v-.52h3.13Zm-4.18,0h-3.12v-.52h3.12Zm-4.17,0h-3.13v-.52H348Zm-57.08,0h-3.28v-.52h3V144H291Zm-4.32,0h-3.13v-.52h3.13Zm-4.17,0h-3v-.65H280v.13h2.48Zm74.34-1.14h-.52v-3.13h.52ZM291,142.91h-.52v-3.13H291Zm54.47-.15h-.52v-3.13h.52ZM280,142.63h-.52V139.5H280ZM356.81,139h-.52v-3.13h.52ZM291,138.74h-.52v-3.13H291Zm54.47-.15h-.52v-3.13h.52ZM280,138.45h-.52v-3.12H280Zm76.82-3.61h-.52v-3.13h.52ZM291,134.56h-.52v-3.12H291Zm54.47-.14h-.52v-3.13h.52ZM280,134.28h-.52v-3.13H280Zm44.1-2.83h-.91v-.52h.53l.69-2.11.5.16Zm-1.95,0H319v-.52h3.13Zm-4.17,0h-3.13v-.52H318Zm-4.18,0h-.24l-1.11-3.12.49-.18L314,131.1l-.22.08Zm43-.78h-.52v-3.13h.52ZM291,130.39h-.52v-3.13H291Zm54.47-.14h-.52v-3.13h.52ZM280,130.11h-.52V127H280ZM325.23,128l-.5-.16,1-3,.49.17Zm-13.14-.65-1-2.94.49-.18,1.05,3Zm44.72-.85h-.52v-3.12h.52ZM291,126.22h-.52v-3.13H291Zm54.47-.15h-.52V123h.52ZM280,125.94h-.52v-3.13H280ZM326.53,124l-.49-.17,1-3,.5.16Zm-15.84-.62-1.05-2.94.49-.18,1.05,2.95Zm46.12-1.09h-.52v-3.13h.52ZM291,122.05h-.52v-3.13H291Zm54.47-.15h-.52v-3.13h.52ZM280,121.77h-.52v-3.13H280Zm47.84-1.71-.49-.16,1-3,.49.16Zm-18.54-.57-1.05-2.95.49-.18,1,3Zm47.52-1.34h-.52V115h.52ZM291,117.88h-.52v-3.13H291Zm54.47-.15h-.52V114.6h.52ZM280,117.6h-.52v-3.13H280Zm39.18-.36-.81-2.3.5-.17.29.83.21-.66.5.16Zm10-1.14-.5-.16,1-3,.5.16Zm-21.25-.54-1.05-3,.49-.18,1.05,2.95Zm12.29-1.46-.5-.16,1-3,.49.16Zm36.63-.12h-.52v-3.13h.52ZM318,114l-1-3,.49-.17,1,3ZM291,113.71h-.52v-3.13H291Zm54.47-.15h-.52v-3.13h.52ZM280,113.43h-.52V110.3H280Zm50.45-1.29L330,112l1-3,.49.17Zm-23.95-.51-1.05-2.95.49-.18,1.05,3Zm15-1.5L321,110l1-3,.5.15Zm-4.8-.11-1-3,.49-.17,1,3Zm40.16-.21h-.52v-3.13h.52ZM291,109.54h-.52v-3.13H291Zm54.47-.15h-.52v-3.13h.52ZM280,109.25h-.52v-3.12H280Zm51.76-1.07-.5-.17,1-3,.49.16Zm-26.66-.48-1-3,.49-.17,1.05,2.94Zm17.64-1.54-.5-.16,1-3,.5.16Zm-7.46-.08-1-3,.5-.17,1,3Zm41.54-.44h-.52v-3.13h.52ZM291,105.36h-.52v-3.12H291Zm54.47-.14h-.52v-3.13h.52ZM280,105.08h-.52V102H280Zm53.06-.87-.49-.16,1-3,.5.16Zm-29.36-.44-1.05-3,.49-.17,1.05,2.94ZM324,102.19l-.5-.16,1-3,.5.16Zm-10.11,0-1-3,.49-.17,1,3Zm42.91-.67h-.52V98.34h.52ZM291,101.19h-.52V98.06H291Zm54.47-.15h-.52V97.92h.52ZM280,100.91h-.52V97.78H280Zm54.36-.66-.49-.16,1-3,.49.16Zm-32.06-.41-1.05-3,.49-.17,1,2.94Zm23-1.62-.5-.16,1-3,.49.16Zm-12.77,0-1-3,.49-.18,1,3Zm44.29-.91h-.52V94.17h.52ZM291,97h-.52V93.89H291Zm54.47-.15h-.52V93.74h.52ZM280,96.74h-.52V93.61H280Zm55.67-.45-.5-.16,1-3,.5.17Zm-34.77-.38-1.05-3,.49-.17,1.05,2.94Zm10.26-1.65-1-3,.49-.17,1,3Zm15.41,0-.49-.16.95-3,.5.16Zm30.25-1.13h-.52V90h.52ZM291,92.85h-.52V89.72H291Zm54.47-.15h-.52V89.57h.52ZM280,92.57h-.52V89.44H280Zm57-.24-.49-.17,1-3,.49.17ZM299.49,92l-1.05-3,.49-.17L300,91.8Zm10.29-1.66-1-2.95.49-.17,1,3Zm18.06,0-.5-.16,1-3,.5.16Zm29-1.33h-.52V85.82h.52ZM291,88.68h-.52V85.55H291Zm54.47-.15h-.52V85.4h.52ZM280,88.4h-.52V85.27H280Zm58.28,0-.5-.16,1-3,.5.16Zm-40.18-.31-1-3,.49-.17,1.05,2.95Zm10.31-1.67-1-2.95.5-.17,1,2.95Zm20.72-.07-.5-.16,1-3,.5.16Zm27.69-1.53h-.52V81.65h.52ZM291,84.51h-.52V81.38H291Zm48.61-.11-.49-.16,1-3,.5.16Zm5.86,0h-.52V81.23h.52ZM280,84.23h-.52V81.1H280Zm16.7-.11-1.05-3,.49-.17,1.05,3ZM307,82.45l-1-3,.49-.17,1,3Zm23.36-.11-.49-.16,1-3,.49.16Zm26.42-1.73h-.52V77.48h.52Zm-15.93-.17-.5-.16,1-3,.49.17ZM291,80.34h-.52V77.21H291Zm4.33-.15-1.05-3,.49-.17,1,3Zm50.14,0h-.52V77.06h.52ZM280,80.05h-.52V76.93H280Zm25.67-1.54-1-3,.5-.17,1,3Zm26-.15-.49-.16.95-3,.5.16Zm10.51-1.88-.49-.17,1-3,.5.17Zm14.63,0h-.52V73.31h.52Zm-62.92-.18-1.05-2.94.49-.18,1.05,3Zm-2.93-.1h-.52V73H291ZM345.43,76h-.52V72.89h.52ZM280,75.88h-.52V72.75H280Zm24.29-1.31-1-3,.49-.17,1,3ZM333,74.39l-.5-.16,1-3,.5.16Zm10.53-1.88-.49-.16,1-3,.49.16Zm-51-.18-1.05-2.94.49-.18,1.05,3Zm64.32-.07h-.52V69.14h.52ZM291,72h-.52V68.86H291Zm54.47-.14h-.52V68.72h.52ZM280,71.71h-.52V68.58H280Zm22.92-1.08-1-2.95.49-.18,1,3Zm31.32-.21-.5-.16,1-3,.5.16Zm10.56-1.87-.5-.16,1.14-3.46v2.74h-.35Zm-53.71-.15-.2-.58h-.44V65.05l1.14,3.18Zm65.73-.31h-.52V65h.52ZM280,67.54h-.52V64.41H280Zm21.54-.85-1-2.95.5-.18,1,3Zm34-.24-.5-.16,1-3,.49.16Zm21.3-2.53h-.52V60.79h.52ZM280,63.37h-.52V60.24H280Zm20.17-.62-1-3,.49-.17,1,2.95Zm36.62-.27-.49-.16.95-3,.5.16Zm20-2.73h-.52V56.62h.52ZM280,59.2h-.52V56.07H280Zm18.8-.39-1-3,.5-.17,1,3Zm39.27-.3-.5-.16,1-3,.5.16Zm18.75-2.93h-.52V52.45h.52ZM280,55h-.52V51.9H280Zm17.42-.14-1-3,.49-.17,1,3Zm41.93-.34-.5-.16,1-3,.5.16Zm17.47-3.13h-.52V48.28h.52ZM296,50.94l-1-3,.49-.17,1,2.95ZM280,50.85h-.52V47.72H280Zm60.63-.28-.5-.16,1-3,.49.16Zm16.19-3.33h-.52v-.47h-2.14v-.52h2.66ZM294.66,47l-.08-.23h-2.51v-.52H295l.21.58Zm58.45-.23H350v-.52h3.13Zm-4.17,0h-3.13v-.52h3.13Zm-4.17,0h-3.12v-.26l-.25-.07.06-.19h3.31Zm-53.74,0H287.9v-.52H291Zm-4.18,0h-3.12v-.52h3.12Zm-4.17,0h-2.95v-.09h-.26v-.43h3.21Z"/></g><g class="cls-1"><path class="cls-4" d="M442.66,144.32h-3v-.52H442l0-.08.5-.15Zm-4.09,0h-3.12v-.52h3.12Zm-4.17,0h-3.13v-.52h3.13Zm-4.17,0h-.31l-.88-3.21.51-.14.82,3-.14,0Zm-48.55,0h-2.51v-.52h2.11l.17-.6.5.15Zm-3.56,0H375v-.52h3.13Zm-4.17,0h-3.13v-.52H374Zm-3.51-.49-.5-.15.9-3,.5.15Zm71.21-1.11-.9-3,.5-.15.9,3Zm-59.42-.38-.5-.14.84-3,.51.14Zm46.54-2.24-.83-3,.5-.14.83,3Zm-57.14-.27-.49-.15.89-3,.5.15Zm68.83-1.11-.89-3,.49-.15.9,3Zm-57.1-.4-.51-.14.85-3,.5.14Zm44.3-2.24-.83-3,.51-.14.82,3Zm-54.83-.25-.5-.15.89-3,.5.14Zm66.44-1.11-.89-3,.5-.15.89,3Zm-54.79-.41-.5-.14.84-3,.5.14Zm42.08-2.25-.83-3,.5-.14.83,3ZM374,131.83l-.5-.14.9-3,.5.15Zm64.06-1.11-.89-3,.5-.14.89,3Zm-52.48-.43-.5-.14.84-3,.51.14ZM425.45,128l-.83-3,.51-.14.82,3Zm-50.23-.2-.5-.15.89-3,.5.15Zm61.67-1.11-.89-3,.5-.15.89,3Zm-50.16-.46-.5-.14.84-3,.5.14ZM424.35,124l-.83-3,.5-.14.83,3Zm-47.94-.17-.5-.15.9-3,.49.15Zm59.29-1.11-.89-3,.5-.15.89,3Zm-47.85-.48-.5-.14.84-3,.51.14ZM423.24,120l-.5-1.82h-.84v-.52h1.24l.61,2.2Zm-45.64-.15-.5-.15.9-3,.5.15Zm56.92-1.11-.9-3,.5-.15.89,3ZM389,118.24l-.51-.14.13-.45h3.06v.52H389Zm31.88-.07h-3.13v-.52h3.13Zm-4.17,0h-3.13v-.52h3.13Zm-4.17,0h-3.13v-.52h3.13Zm-4.18,0h-3.12v-.52h3.12Zm-4.17,0H401v-.52h3.13Zm-4.17,0h-3.13v-.52H400Zm-4.17,0H392.7v-.52h3.13Zm-17-2.32-.5-.15.89-3,.5.15Zm54.53-1.12-.89-3,.49-.15.9,3ZM380,111.85l-.5-.15.9-3,.5.15Zm52.15-1.12-.89-3,.5-.15.89,3Zm-12.61-1.37H416.4v-.52h3.13Zm-4.17,0h-3.13v-.52h3.13Zm-4.17,0h-3.13v-.52h3.13Zm-4.18,0h-3.12v-.52H407Zm-4.17,0h-3.13v-.52h3.13Zm-4.17,0h-3.13v-.52h3.13Zm-4.17,0h-3.13v-.52h3.13Zm25.73-.26-.83-3,.5-.14.84,3Zm-28.45-.47-.5-.15.85-3,.5.15Zm-10.6-.78-.5-.15.9-3,.5.14ZM431,106.73l-.89-3,.5-.15.89,3Zm-11.83-1.65-.83-3,.5-.14.84,3Zm-26.2-.47-.5-.14.85-3,.5.14Zm-10.54-.76-.5-.14.89-3,.5.15Zm47.38-1.12-.89-3,.5-.14.89,3ZM418,101.06l-.83-3,.5-.14.84,3Zm-23.95-.46-.5-.14.85-3,.5.14Zm-10.49-.74-.5-.15.9-3,.5.15Zm45-1.12-.89-3,.5-.15.89,3ZM416.9,97l-.83-3,.5-.13.83,3Zm-21.7-.45-.51-.15.86-3,.5.15Zm-10.44-.73-.49-.15.89-3,.5.15Zm42.62-1.12-.89-3,.5-.15.89,3ZM415.79,93,415,90l.5-.14.83,3Zm-19.46-.45-.5-.14.86-3,.5.14ZM386,91.86l-.5-.14.89-3,.5.15Zm40.24-1.12-.9-3,.5-.15.9,3ZM414.68,89l-.83-3,.5-.14.83,3Zm-17.21-.44-.5-.14.86-3,.5.14Zm-10.32-.69-.5-.15.9-3,.5.15ZM425,86.74l-.89-3,.5-.15.89,3ZM413.57,85l-.83-3,.5-.14.83,3Zm-15-.43-.5-.15.86-3,.5.14Zm-10.26-.68-.5-.15.89-3,.5.15Zm35.47-1.13-.89-3,.5-.15.89,3ZM412.46,81l-.83-3,.5-.14.83,3Zm-12.71-.43-.5-.14.85-3,.51.15Zm-10.21-.66-.5-.15.9-3,.49.14Zm33.09-1.13-.89-3,.5-.15.89,3Zm-11.28-1.81-.83-3,.5-.14.83,3Zm-10.46-.41-.5-.14.85-3,.5.14Zm-10.16-.64-.5-.15.9-3,.5.15Zm30.71-1.14-.89-3,.5-.14.89,3Zm-11.2-1.83-.83-3,.5-.14.83,3Zm-8.21-.4-.5-.14.85-3,.5.14Zm-10.1-.63-.5-.15.89-3,.5.15Zm28.32-1.14-.89-3,.5-.15.89,3Zm-11.12-1.85-.83-3,.5-.14.83,3Zm-6-.39-.5-.15.85-3,.5.15Zm-10.05-.62-.5-.15.9-3,.49.15Zm25.94-1.13-.89-3,.5-.15.89,3Zm-11-1.88-.83-3,.5-.14.83,3Zm-3.71-.39-.5-.14.85-3,.5.14Zm-10-.6-.5-.14.9-3,.5.15Zm23.57-1.13-.89-3,.49-.15.9,3Zm-11-1.9L406.14,58l-.69,2.43-.5-.14.85-3,.5.14-.09.34.37-.1.84,3Zm-11.4-1-.5-.15.89-3,.5.15Zm21.18-1.14-.89-3,.5-.15.89,3Zm-20-2.86-.5-.15.9-3,.49.15Zm18.8-1.14-.89-3,.5-.15.89,3Zm-17.61-2.86-.5-.15.9-3,.5.15Zm16.42-1.14-.89-3,.5-.15.89,3ZM399.09,47.9l-.5-.15.45-1.5H401v.52h-1.57Zm14.23-1.13h-2.95v-.52h3.15l.1.36-.3.08Zm-4,0H406.2v-.52h3.13Zm-4.17,0H402v-.52h3.13Z"/></g><g class="cls-1"><path class="cls-4" d="M478.5,146.35h-.09v-.52h.09c1,0,2,0,3-.12l.05.52C480.56,146.31,479.53,146.35,478.5,146.35Zm-1.14,0c-1.08,0-2.14-.08-3.14-.17l0-.52c1,.09,2,.14,3.1.17Zm5.24-.2-.06-.52c1-.12,2.07-.28,3.07-.48l.1.51C484.7,145.86,483.66,146,482.6,146.14Zm-9.42-.08c-1.07-.12-2.12-.28-3.12-.49l.11-.51c1,.2,2,.36,3.07.48Zm13.56-.64-.12-.5c1-.24,2-.54,3-.87l.17.49A30.19,30.19,0,0,1,486.74,145.42Zm-17.7-.07c-.86-.21-1.69-.44-2.48-.71l-.55-.18.17-.49.54.18c.78.26,1.6.49,2.44.69Zm21.74-1.19-.12-.23-.08-.25c1-.38,1.93-.8,2.82-1.25l.24.47A30.89,30.89,0,0,1,490.78,144.16ZM465,144.1c-1-.39-2-.81-2.89-1.26l.23-.47c.89.44,1.85.86,2.84,1.24Zm29.54-1.69-.25-.45a30.62,30.62,0,0,0,2.64-1.63l.3.43A29.31,29.31,0,0,1,494.57,142.41Zm-33.37-.06a28.82,28.82,0,0,1-2.69-1.65l.3-.43a27.77,27.77,0,0,0,2.64,1.62Zm36.91-2.2-.31-.42a27.57,27.57,0,0,0,2.26-1.89l.11-.1.36.38-.11.1A26.82,26.82,0,0,1,498.11,140.15Zm-40.45-.08a29.65,29.65,0,0,1-2.4-2l.36-.38a28.71,28.71,0,0,0,2.36,2Zm43.62-2.69-.37-.36a28.11,28.11,0,0,0,2-2.33l.41.32A27.34,27.34,0,0,1,501.28,137.38Zm-46.77-.09a25.86,25.86,0,0,1-2.06-2.4l.42-.31a23.35,23.35,0,0,0,2,2.34Zm24.12-.15h-.22v-.52h.22a22.92,22.92,0,0,0,2.87-.18l.07.52A24,24,0,0,1,478.63,137.14Zm-1.27,0a30.12,30.12,0,0,1-3.14-.27l.07-.52a29.37,29.37,0,0,0,3.09.27Zm5.25-.31-.09-.51a25.86,25.86,0,0,0,2.55-.56l.47-.13.15.5-.49.14C484.34,136.48,483.47,136.67,482.61,136.81Zm-9.43-.13a18.13,18.13,0,0,1-3-.78l-.09,0,.17-.49.09,0a18.47,18.47,0,0,0,2.89.76Zm13.51-.91-.18-.49a15.77,15.77,0,0,0,2.78-1.33l.27.45A17.58,17.58,0,0,1,486.69,135.77Zm-17.56-.28a22.7,22.7,0,0,1-2.84-1.39l.27-.45a21,21,0,0,0,2.77,1.36ZM504,134.16l-.43-.3a25.14,25.14,0,0,0,1.65-2.62l.46.25A26.75,26.75,0,0,1,504,134.16ZM451.84,134l-.19-.27c-.53-.79-1-1.6-1.48-2.41l.45-.25c.45.79.94,1.59,1.47,2.37l.18.26Zm38.61-.21-.3-.43.72-.52a14,14,0,0,0,1.61-1.47l.38.35a13.34,13.34,0,0,1-1.67,1.53C490.94,133.48,490.7,133.66,490.45,133.83Zm-25.05-.3c-.4-.27-.79-.56-1.16-.85s-.89-.76-1.3-1.15l.37-.38c.39.39.82.76,1.26,1.12a13.53,13.53,0,0,0,1.12.83ZM493.55,131l-.4-.33a16.29,16.29,0,0,0,1.66-2.58l.46.24A15.66,15.66,0,0,1,493.55,131Zm-31.34-.19a16.21,16.21,0,0,1-1.92-2.53l.44-.27a17.56,17.56,0,0,0,1.86,2.45Zm44-.21-.47-.23c.19-.38.37-.76.54-1.15.25-.55.48-1.12.69-1.7l.49.18c-.21.59-.45,1.17-.7,1.74C506.54,129.79,506.35,130.18,506.16,130.56Zm-56.49-.12a30.57,30.57,0,0,1-1.32-2.86l.48-.2c.38,1,.82,1.89,1.3,2.82Zm10.08-3.1a28.56,28.56,0,0,1-1.4-2.83l.47-.2a29.86,29.86,0,0,0,1.39,2.77Zm36,0-.47-.21a16,16,0,0,0,.93-2.93l.51.11A16.28,16.28,0,0,1,495.73,127.34Zm12-.67-.49-.16a26.84,26.84,0,0,0,.75-3l.51.09A25.52,25.52,0,0,1,507.75,126.67ZM448,126.59l-.16-.43,3-1.12.18.49-2.73,1,0,0Zm4-1.43-.19-.49,2.93-1.1.19.49Zm3.9-1.46-.18-.49,2.39-.9.09.25c.09.27.18.53.29.79l-.49.19-.21-.55Zm41-.43-.51-.08a22.77,22.77,0,0,0,.27-3.08h.52A22.23,22.23,0,0,1,496.89,123.27Zm11.81-.71-.52-.07a26.27,26.27,0,0,0,.26-3.09l.52,0A27.32,27.32,0,0,1,508.7,122.56Zm-12-3.48c0-1.1-.06-2.14-.16-3.1l.52,0c.1,1,.15,2,.16,3.14Zm11.79-.71c0-1.07-.06-2.12-.13-3.11l.51,0c.09,1,.13,2.06.14,3.15ZM496.37,115a19.41,19.41,0,0,0-.65-3l.5-.15a20.44,20.44,0,0,1,.67,3.09Zm11.85-.72c-.12-1.07-.28-2.1-.48-3.06l.52-.11c.2,1,.36,2,.48,3.11ZM495.42,111l0-.06h0a16.61,16.61,0,0,0-1.38-2.73l.44-.28a16.28,16.28,0,0,1,1.42,2.83l-.24.1Zm12.1-.85a23.28,23.28,0,0,0-.92-3l.49-.18a25.86,25.86,0,0,1,.94,3Zm-14.08-2.78a16.32,16.32,0,0,0-2.05-2.29l.36-.38a16.14,16.14,0,0,1,2.11,2.36Zm12.77-1.13a29.83,29.83,0,0,0-1.39-2.77l.45-.26a29.71,29.71,0,0,1,1.42,2.82Zm-15.6-1.84a24.21,24.21,0,0,0-2.51-1.81l.28-.44A24.94,24.94,0,0,1,491,104Zm13.68-1.81a25.89,25.89,0,0,0-1.81-2.51l.4-.33a25.31,25.31,0,0,1,1.85,2.56Zm-17.07-.53c-.86-.49-1.78-1-2.76-1.42l.22-.48c1,.46,1.93,1,2.8,1.45Zm-3.71-1.85L480.66,99l.2-.48,2.87,1.27Zm18.3-.92c-.34-.38-.7-.76-1.07-1.12s-.75-.71-1.13-1.06l.34-.39c.4.35.78.71,1.15,1.08s.75.76,1.1,1.15Zm-22.11-.76-2.88-1.23.21-.48,2.88,1.23Zm-3.84-1.63-2.34-1L473,95.7l.21-.48.54.23,2.34,1Zm23-.46a28.57,28.57,0,0,0-2.47-1.87l.3-.43a31.17,31.17,0,0,1,2.51,1.9ZM472,95.29c-1-.42-1.94-.87-2.85-1.32l.23-.47c.91.45,1.86.89,2.83,1.32ZM495.49,94c-.86-.55-1.77-1.08-2.68-1.56l.24-.46c.93.49,1.85,1,2.72,1.58Zm-27.26-.51c-1-.5-1.88-1-2.74-1.54l.27-.45c.85.52,1.76,1,2.71,1.53ZM491.88,92c-.93-.47-1.87-.92-2.81-1.36l.22-.47c.94.44,1.89.9,2.83,1.37ZM464.6,91.4c-.91-.59-1.78-1.2-2.58-1.81l.32-.41c.79.6,1.64,1.2,2.54,1.78Zm23.53-1.23c-.93-.42-1.89-.84-2.86-1.25l.2-.48c1,.41,1.94.83,2.87,1.25Zm-26.94-1.23c-.83-.68-1.62-1.4-2.34-2.12l.38-.37a28.94,28.94,0,0,0,2.29,2.08Zm23.11-.41c-.6-.25-1.22-.49-1.83-.73-.37-.13-.73-.27-1.08-.41l.19-.48,1.07.4,1.85.73ZM480.42,87c-1-.41-2-.81-2.9-1.21l.21-.47c.9.39,1.87.79,2.88,1.2Zm-22.29-1c-.32-.35-.62-.69-.91-1s-.74-.94-1.07-1.42l.43-.29c.32.46.68.93,1.05,1.38s.58.69.88,1Zm18.44-.68c-1-.47-2-.93-2.82-1.38l.24-.47c.85.45,1.79.91,2.8,1.37Zm-3.75-1.88c-1-.54-1.87-1.1-2.68-1.66l.3-.43A30.53,30.53,0,0,0,473.07,83Zm-17.25-.79a21.26,21.26,0,0,1-1.49-2.79l.48-.21A23,23,0,0,0,456,82.44Zm13.72-1.49a19.18,19.18,0,0,1-1.88-1.6c-.17-.17-.34-.33-.49-.5l.38-.36c.15.16.31.33.47.48a19.37,19.37,0,0,0,1.83,1.56ZM453.68,79a22.92,22.92,0,0,1-.95-3l.5-.13a23,23,0,0,0,.93,3Zm12.54-.63a12.43,12.43,0,0,1-1.68-2.71l.48-.22a12.14,12.14,0,0,0,1.6,2.6ZM452.5,74.91a28.41,28.41,0,0,1-.44-3.13l.52,0A26.84,26.84,0,0,0,453,74.8Zm11.65-.29a16.83,16.83,0,0,1-.74-3.09l.52-.07a15.76,15.76,0,0,0,.71,3ZM452,70.73c0-.52,0-1.06,0-1.6s0-1,0-1.55l.52,0c0,.5,0,1,0,1.52s0,1.06,0,1.58Zm11.3-.25c-.06-.69-.09-1.42-.09-2.16,0-.34,0-.67,0-1l.52,0c0,.32,0,.65,0,1,0,.72,0,1.44.09,2.11Zm-10.7-3.9-.52,0a24.45,24.45,0,0,1,.5-3.12l.51.11A25.35,25.35,0,0,0,452.59,66.58Zm11.22-.26-.52,0a16.46,16.46,0,0,1,.57-3.12l.5.14A16.31,16.31,0,0,0,463.81,66.32Zm34.59-.65-.09-.23c-.13-.32-.27-.64-.41-1l.48-.21c.11.24.21.48.32.73l1.73-.61.18.49Zm3.19-1.12-.17-.5,2.95-1,.17.49Zm-4.13-1a21,21,0,0,0-1.56-2.67l.43-.29a23.3,23.3,0,0,1,1.6,2.73Zm8.07-.4-.18-.49,3-1,.17.5Zm-52.2-.64-.5-.14a22.91,22.91,0,0,1,1-3l.48.2A23.53,23.53,0,0,0,453.33,62.52Zm11.35-.2-.49-.18a11.66,11.66,0,0,1,1.49-2.82l.42.3A11.38,11.38,0,0,0,464.68,62.32ZM508,61.15c-.45-.94-.93-1.87-1.44-2.75l.45-.26c.52.89,1,1.83,1.46,2.79Zm-12.69-1.1a18,18,0,0,0-2.06-2.28l.35-.38a18.5,18.5,0,0,1,2.13,2.35Zm-28.57-1.22-.39-.35a11.81,11.81,0,0,1,1.84-1.68l.57-.4.29.43c-.19.12-.37.25-.55.39A10.79,10.79,0,0,0,466.73,58.83Zm-12-.18-.48-.22a21.25,21.25,0,0,1,1.55-2.76l.43.29A20.12,20.12,0,0,0,454.75,58.65ZM506,57.52c-.56-.88-1.15-1.74-1.78-2.54l.41-.32a28.28,28.28,0,0,1,1.81,2.58Zm-13.55-.43-.44-.35a12.91,12.91,0,0,0-2.13-1.31l.23-.46a12.1,12.1,0,0,1,2.22,1.36l.46.36Zm-22.55-.81-.26-.45a18,18,0,0,1,2.87-1.34l.18.49A17.81,17.81,0,0,0,469.91,56.28Zm-13.07-1.17-.42-.31a21.3,21.3,0,0,1,2-2.41l.38.36A20.3,20.3,0,0,0,456.84,55.11ZM489,55a17.06,17.06,0,0,0-3-.86l.11-.52a19,19,0,0,1,3,.9Zm-15.29-.37-.15-.5a22.35,22.35,0,0,1,3.08-.69l.08.51A21.35,21.35,0,0,0,473.67,54.65Zm29.91-.47a28.34,28.34,0,0,0-2.11-2.27l.36-.37a29.24,29.24,0,0,1,2.15,2.3ZM485,54a26.74,26.74,0,0,0-3.08-.27l0-.53a27.71,27.71,0,0,1,3.14.29Zm-7.29-.13-.05-.52a29,29,0,0,1,3.15-.16h.07v.52h-.07A28.19,28.19,0,0,0,477.7,53.84ZM459.57,52l-.36-.38.28-.25a23,23,0,0,1,2.17-1.75l.3.42a23.63,23.63,0,0,0-2.12,1.71Zm41.14-.82c-.74-.65-1.51-1.27-2.31-1.85l-.11-.08.29-.43.12.09a28.45,28.45,0,0,1,2.35,1.88Zm-37.9-1.72-.28-.44a26,26,0,0,1,2.74-1.56l.23.46A26.1,26.1,0,0,0,462.81,49.49Zm34.62-.78a21.36,21.36,0,0,0-2.73-1.45l.21-.47a20.64,20.64,0,0,1,2.8,1.48Zm-31-1.2-.21-.48c.71-.32,1.46-.62,2.23-.9l.7-.25.17.49c-.23.08-.47.16-.69.25C467.87,46.89,467.13,47.19,466.43,47.51Zm27.32-.64a26.83,26.83,0,0,0-2.95-.95l.14-.51a27.75,27.75,0,0,1,3,1Zm-23.44-.8-.15-.5a31.31,31.31,0,0,1,3.07-.73l.09.51C472.28,45.55,471.27,45.79,470.31,46.07Zm19.49-.4c-1-.22-2-.4-3.06-.55l.07-.51c1.07.14,2.12.33,3.1.55Zm-15.46-.49-.08-.51c1-.16,2.06-.28,3.13-.35l0,.52C476.37,44.91,475.33,45,474.34,45.18ZM485.71,45c-1-.11-2-.18-3.1-.22l0-.53c1.08,0,2.14.12,3.14.23Zm-7.24-.22,0-.52c1,0,2.1,0,3.14,0v.52C480.54,44.72,479.47,44.73,478.47,44.78Z"/><path class="cls-4" d="M588.63,144.32h-2.36v-.52h1.31l-.46-.62.42-.31Zm-3.4,0H582.1v-.52h3.13Zm-4.17,0h-3.13v-.52h3.13Zm-4.18,0h-3l-1.94-2.62.42-.31,1.78,2.41h2.74Zm-36.34,0H539v-.52h1v-1.57h.52Zm-2.61,0H534.8v-.52h3.13Zm-4.17,0h-3.13v-.52h3.13Zm-4.17,0H528.5v-2.56H529v2h.57Zm56.9-2-1.88-2.51.42-.31,1.88,2.5Zm-46-1.16H540v-3.13h.52Zm30.78-.32-1.87-2.52.42-.31,1.86,2.51Zm-42.3-.15h-.52v-3.13H529ZM584,139l-1.88-2.5.42-.32,1.88,2.51Zm-15.16-1.49L567,135l.42-.31,1.86,2.51Zm-28.29-.5H540v-3.13h.52ZM529,136.55h-.52v-3.13H529Zm52.46-.88-1.87-2.5.41-.31,1.88,2.5Zm-15.14-1.5-1.87-2.51.42-.31,1.87,2.51Zm-25.8-1.33H540v-3.12h.52ZM529,132.37h-.52v-3.12H529Zm50,0-1.88-2.51.42-.31,1.88,2.5Zm-15.13-1.52L562,128.31l.42-.31,1.87,2.51ZM576.47,129l-1.87-2.5.41-.31,1.88,2.5Zm-35.93-.33H540v-3.13h.52ZM529,128.2h-.52v-3.13H529Zm32.34-.73L559.5,125l.41-.31,1.87,2.51Zm12.61-1.8-1.88-2.51.42-.31,1.88,2.5Zm-33.43-1.17H540v-3.13h.52Zm18.33-.37L557,121.62l.41-.32,1.87,2.51ZM529,124h-.52V120.9H529Zm42.45-1.7-1.88-2.5.42-.32,1.87,2.51Zm-15.08-1.55-1.87-2.51.42-.31,1.86,2.51Zm-15.85-.45H540V117.2h.52ZM529,119.86h-.52v-3.13H529ZM569,119l-1.88-2.5.42-.31,1.88,2.5Zm-15.06-1.56L552,114.92l.42-.31,1.86,2.51Zm-13.36-1.27H540V113h.52ZM529,115.69h-.52v-3.13H529Zm37.44,0-1.88-2.51.42-.31,1.87,2.5Zm-15.05-1.58-1.87-2.51.42-.31,1.87,2.51ZM564,112.32l-1.87-2.5.41-.32,1.88,2.51ZM540.54,112H540v-3.13h.52ZM529,111.52h-.52v-3.13H529Zm19.9-.79-1.87-2.51.42-.31,1.87,2.51ZM561.45,109l-1.88-2.5.42-.31,1.88,2.5Zm-20.91-1.16H540v-3.13h.52Zm5.89-.43-1.86-2.51.41-.32,1.87,2.52Zm-17.41,0h-.52v-3.12H529Zm29.92-1.69-1.87-2.5.41-.32,1.88,2.5Zm-15-1.61-1.86-2.51.41-.31,1.87,2.51Zm-3.4-.4H540v-3.12h.52ZM529,103.17h-.52V100H529Zm27.42-.86-1.88-2.5.42-.31,1.88,2.5Zm-15-1.62-.92-1.23H540V97.88l1.85,2.5ZM529,99h-.52V95.87H529Zm24.92,0-1.88-2.51.42-.31,1.87,2.5Zm-2.51-3.34-1.88-2.5.42-.32,1.88,2.51ZM529,94.83h-.52V91.7H529Zm21.57-2.54-.43-.3L552,89.46l.42.31ZM529,90.66h-.52V87.53H529Zm11-.8V86.78h.52v1.46l0,0,.42.3Zm13-.93-.42-.31,1.85-2.53.42.31ZM541.6,87.66l-.42-.31L543,84.81l.42.31ZM529,86.49h-.52V83.36H529Zm11.52-.75H540V82.61h.52Zm15-.18-.42-.31,1.85-2.52.42.31ZM544,84.27l-.43-.3,1.83-2.54.43.3Zm-15-2h-.52V79.19H529Zm29-.13-.42-.3,1.84-2.53.42.31Zm-17.44-.62H540V78.44h.52Zm5.93-.68-.42-.31L547.88,78l.42.31Zm14-2.06-.42-.31L561.87,76l.42.3ZM529,78.14h-.52V75H529Zm19.89-.64-.42-.3,1.83-2.54.42.3Zm-8.37-.1H540V74.27h.52Zm22.36-1.94-.42-.31,1.85-2.52.42.31Zm-11.55-1.35-.43-.3,1.83-2.54.43.3ZM529,74h-.52V70.84H529Zm11.52-.74H540V70.1h.52Zm24.83-1.14-.42-.3,1.84-2.53.43.31Zm-11.58-1.36-.43-.31,1.83-2.53.42.3ZM529,69.8h-.52V66.67H529Zm11.52-.75H540V65.93h.52Zm27.29-.32-.42-.31,1.85-2.52.42.3Zm-11.61-1.39-.42-.3,1.83-2.54.42.3ZM529,65.63h-.52V62.5H529Zm41.27-.27-.42-.31,1.85-2.52.42.31Zm-29.75-.48H540V61.75h.52ZM558.66,64l-.42-.31,1.82-2.54.43.31Zm14.1-2-.42-.31,1.84-2.53.42.31ZM529,61.46h-.52V58.33H529Zm11.52-.75H540V57.58h.52Zm20.56-.14-.43-.3,1.83-2.54.42.3Zm14.12-1.94-.42-.31,1.85-2.52.42.3ZM529,57.29h-.52V54.16H529Zm34.51-.1-.42-.31,1.83-2.54.42.31Zm-23-.65H540V53.41h.52Zm37.14-1.28-.42-.3,1.85-2.53.42.31ZM566,53.8l-.42-.3L567.37,51l.43.3Zm-37-.68h-.52V50H529Zm11.52-.75H540V49.24h.52Zm39.61-.47-.42-.31,1.84-2.53.43.31Zm-11.74-1.49-.43-.3,1.83-2.54.42.31ZM529,48.94h-.52V46.25h1v.52H529Zm53.59-.41-.42-.31,1.06-1.45H583v-.52h1.32Zm-42.07-.33H540V46.77h-1.18v-.52h1.7ZM570.84,47l-.42-.31.34-.47h2.81v.52H571Zm11.07-.26h-3.12v-.52h3.12Zm-4.17,0h-3.13v-.52h3.13Zm-40,0h-3.12v-.52h3.12Zm-4.17,0h-3.13v-.52h3.13Z"/></g></g><path class="cls-4" d="M239.45,29c-3.77,13.27-2.15,27.41,2.09,40.38a145.19,145.19,0,0,0,7.83,18.77c3.07,6.26,6.54,12.28,9.39,18.65,2.74,6.18,4.8,12.82,4.8,19.63,0,4.57-1,14.7-7.85,13.56-2.91-.49-5.27-2.7-7.14-4.84a30.55,30.55,0,0,1-4.69-7.36,55,55,0,0,1-4.39-17,139.45,139.45,0,0,1,2.81-47.14,1.3,1.3,0,0,0-2.51-.7,144.3,144.3,0,0,0-3.25,44.48,70,70,0,0,0,3.62,18.22c2.09,5.55,5.22,11.17,10.12,14.71,2.41,1.76,5.56,3,8.54,2.09a9.15,9.15,0,0,0,5.49-5.38c2.68-6.08,2.2-13.5.75-19.82-1.61-7-4.8-13.55-8.1-20s-6.78-13-9.59-19.73c-6.26-15-9.91-31.81-5.35-47.81A1.31,1.31,0,0,0,239.5,29Z"/><path class="cls-4" d="M24.14,29.64c4.05,14.22,1.61,29.2-3.41,42.87a173.53,173.53,0,0,1-9.07,19.93c-3.32,6.41-6.81,12.78-9.12,19.64-2.2,6.66-3.31,13.85-1.93,20.8a14.17,14.17,0,0,0,3.54,7.54,7.79,7.79,0,0,0,7.76,1.86c5.74-1.66,9.88-7.56,12.36-12.66a56.47,56.47,0,0,0,4.86-17.73,140.17,140.17,0,0,0-2.72-49c-.39-1.64-2.9-.94-2.52.7a141.76,141.76,0,0,1,3.25,42.53,71.37,71.37,0,0,1-3.22,17.62C22.11,129.08,19,135,14.25,138.26c-2.3,1.6-5.41,2.65-7.83.68-2.09-1.71-2.89-4.66-3.35-7.22-1.24-6.82.15-13.88,2.49-20.3s5.78-12.59,9-18.77a178.32,178.32,0,0,0,8.43-18.58c5.41-14.32,8-30.18,3.75-45.15a1.3,1.3,0,0,0-2.51.68Z"/><path class="cls-3" d="M19,93.09a258.2,258.2,0,0,1,26.54-.17c6.26.27,15,.87,41.33,4.84,31.77,4.76,33.82,6.09,45.38,6.25,6.54.11,16.21-2.55,33.63-4.52,28.79-3.26,36.71-5.44,57.17-6.83,10.94-.74,19.33.78,25.11.77q-1.49,12.57-3,25.16a233.22,233.22,0,0,1-110.37,28.5,233.38,233.38,0,0,1-112.63-28.5Q20.55,105.89,19,93.09Z"/><path class="cls-4" d="M248.12,79.26a163.14,163.14,0,0,1-19-.63c-19.66-1.81-26.55-6.11-48.79-11.18-12.94-3-27-6.08-45.34-6.26A180.46,180.46,0,0,0,102.32,64C74.75,68.56,66,75.2,38.92,78.47A192.49,192.49,0,0,1,19,79.89q1.59-16.68,3.13-33.28a232,232,0,0,1,222.82,0Q246.54,62.93,248.12,79.26Z"/><path class="cls-5" d="M248.12,93.43c-8.1.25-20.44.77-35.46,2-49.5,4-52.07,9.38-79.37,9.22-23.27-.12-23.76-4-72.46-8.56-3.66-.34-19.26-1.83-39.93-2.86l-2-.11V79L21.63,78A352.54,352.54,0,0,1,132.36,59.53,348.73,348.73,0,0,1,248.12,79Z"/><path class="cls-6" d="M21.1,77.53c.33-5.28.69-9.92,1-15.3S23,52,23.41,46.58"/><path class="cls-7" d="M20.92,93.2q1.56,12.3,3.13,24.58"/><line class="cls-8" x1="21.1" y1="78.9" x2="20.92" y2="91.73"/><path class="cls-6" d="M246.17,77.53c-.33-5.28-.7-9.92-1-15.3S244.3,52,243.85,46.58"/><path class="cls-7" d="M246.35,93.2l-3.9,24.3"/><line class="cls-8" x1="246.17" y1="78.9" x2="246.34" y2="91.73"/><path class="cls-9" d="M244.86,50.17c-12.7-4.34-30.34-10.1-51.67-16.16C150.31,21.81,139,21.6,133.92,21.65c-8.74.09-16.25,1.14-54.66,11.83C57.09,39.65,37.78,45.4,22,50.17V27.68c25.38-7.39,47-13.46,63.71-18.07C114.35,1.72,120.42.34,129.8.1c16.68-.42,25.86,3.21,58,12.37,13.31,3.73,32.84,9.17,57.06,15.21Z"/><path class="cls-10" d="M22,32.42c20-5.79,43.67-13.09,63.64-18.85C96.28,9.35,113,5.78,133.05,5.49c12.3-.19,18.77,1.4,36.36,5.7a547.13,547.13,0,0,1,75.45,24.4"/><path class="cls-11" d="M22.24,37.06c20-5.81,43.68-13,63.61-18.86,10.61-4.18,27.3-7.75,47.37-8.08,12.29-.19,18.72,1.4,36.37,5.7A546.56,546.56,0,0,1,245,40.19"/><path class="cls-12" d="M22.24,41.81C42.2,36,65.91,28.72,85.85,22.94c10.61-4.17,27.3-7.75,47.37-8.07,12.29-.2,18.72,1.4,36.37,5.7A545.56,545.56,0,0,1,245,45"/></g></g></svg>